<!DOCTYPE svg PUBLIC "-//W3C//DTD SVG 1.1//EN" "http://www.w3.org/Graphics/SVG/1.1/DTD/svg11.dtd">
<!-- Uploaded to: SVG Repo, www.svgrepo.com, Transformed by: SVG Repo Mixer Tools -->
<svg version="1.1" id="Icons" xmlns="http://www.w3.org/2000/svg" xmlns:xlink="http://www.w3.org/1999/xlink" viewBox="0 0 32 32" xml:space="preserve" width="800px" height="800px" fill="#a6e3a1" transform="matrix(1, 0, 0, 1, 0, 0)">
<g id="SVGRepo_bgCarrier" stroke-width="0"/>
<g id="SVGRepo_tracerCarrier" stroke-linecap="round" stroke-linejoin="round"/>
<g id="SVGRepo_iconCarrier"> <style type="text/css"> .st0{fill:none;stroke:#000000;stroke-width:2;stroke-linecap:round;stroke-linejoin:round;stroke-miterlimit:10;} </style> <path d="M28.3,13.3L20.1,5c-1-1-2.5-1-3.5,0l-2.8,2.8c-0.8,0.8-0.9,1.9-0.5,2.9l-9.7,9.7c-0.5,0.5-0.8,1.1-0.8,1.8s0.3,1.4,0.8,1.8 c0.5,0.5,1.1,0.8,1.8,0.8s1.4-0.3,1.8-0.8l9.3-9.3c2.7,3.6,4.3,7.1,4.2,9.3c0,0.4,0.2,0.8,0.6,1c0.1,0.1,0.3,0.1,0.4,0.1 c0.3,0,0.5-0.1,0.7-0.3l5.8-5.8c0.8-0.8,1.2-1.8,1.2-2.9C29.5,15.1,29.1,14.1,28.3,13.3z"/> </g>
</svg>