<?xml version="1.0" encoding="UTF-8" standalone="no"?>
<!-- Created with Inkscape (http://www.inkscape.org/) -->
<svg
   xmlns:svg="http://www.w3.org/2000/svg"
   xmlns="http://www.w3.org/2000/svg"
   version="1.0"
   width="542.00006"
   height="540"
   id="svg2">
  <defs
     id="defs4" />
  <g
     transform="translate(-102.28571,-210.43361)"
     id="layer1">
    <path
       d="M 348.28576,506.43361 L 102.28571,506.43361 L 102.28571,455.43361 L 348.28576,455.43361 L 348.28576,210.43361 L 399.28576,210.43361 L 399.28576,455.43361 L 644.28576,455.43361 L 644.28576,506.43361 L 399.28576,506.43361 L 399.28576,750.43361 L 348.28576,750.43361 L 348.28576,506.43361 z M 207.74816,695.36988 C 201.25206,693.48073 195.64998,684.13706 197.38546,678.08585 C 198.51356,674.15226 202.81236,669.74495 206.80666,668.42671 C 211.29256,666.94622 214.94106,668.52052 219.85066,674.05513 C 223.30666,677.95107 224.60616,678.7154 228.52466,679.15708 C 232.47496,679.60233 233.48496,679.32527 235.59176,677.21845 C 238.70906,674.10116 240.71996,663.10124 240.05796,652.78701 C 239.47726,643.73713 235.18456,634.397 228.34476,627.30081 L 223.66656,622.44732 L 227.39526,619.97982 C 235.78376,614.4286 240.67806,602.86379 240.74576,588.43361 C 240.78116,580.89493 240.47056,579.39753 237.99936,575.19354 C 233.32256,567.23745 228.12196,567.45924 219.88256,575.96617 C 213.83766,582.20733 211.55296,582.70956 204.57416,579.3312 C 192.65872,573.56304 195.93572,557.24988 210.01036,552.26955 C 215.49176,550.32993 245.70606,550.65885 260.05046,552.81431 C 279.72796,555.77112 294.82756,561.123 300.48456,567.14569 L 302.78576,569.59562 L 302.15376,674.93361 L 299.46976,678.86128 C 293.72686,687.26522 276.98906,693.38936 254.26716,695.40034 C 240.47256,696.62123 211.98696,696.60257 207.74816,695.36988 z M 278.19456,670.98077 C 279.73976,670.18171 281.48236,668.26921 282.06696,666.73077 C 282.71106,665.03583 283.37886,648.09466 283.76176,623.73822 C 284.47386,578.43743 284.57026,579.14991 277.21756,575.39882 C 274.09006,573.80331 271.69336,573.41021 266.48816,573.63901 L 259.78576,573.93361 L 259.25636,590.43361 C 258.79186,604.90901 258.43816,607.58063 256.37326,612.20669 C 253.93836,617.66169 249.33766,622.43361 246.51316,622.43361 C 245.62276,622.43361 246.96786,623.74869 249.50226,625.35601 C 252.15426,627.03781 255.20896,630.15285 256.69806,632.69387 C 259.20686,636.97482 259.28576,637.62706 259.28576,654.1048 C 259.28576,663.45231 259.58576,671.40028 259.95236,671.76694 C 261.24996,673.06449 275.33926,672.45729 278.19456,670.98077 z M 509.78576,694.82635 C 481.67616,693.1435 458.89016,687.29323 449.98216,679.4719 L 446.28576,676.22643 L 447.61526,569.0746 L 450.93216,565.40321 C 461.20186,554.03588 484.59866,548.94212 523.46586,549.61177 C 540.48836,549.90505 542.39076,550.11657 544.90406,551.9954 C 549.27916,555.26594 551.47116,558.86636 551.95056,563.56937 C 552.54366,569.38851 549.70746,573.9172 543.84606,576.50996 C 538.22256,578.99751 535.22176,578.01159 529.78576,571.89031 C 526.83076,568.56284 524.81036,567.22818 522.05226,566.78168 C 516.50816,565.88417 512.54536,567.9027 511.22156,572.29861 C 509.46796,578.1217 508.86966,594.71724 510.21816,600.13366 C 511.60856,605.71836 518.12066,616.20344 522.69126,620.21653 L 525.86336,623.00161 L 521.56846,625.79994 C 508.69306,634.18889 503.71396,663.18695 513.37336,673.52738 C 517.85706,678.32719 521.37166,677.60957 528.52536,670.43361 C 533.01666,665.92837 535.21046,664.43361 537.33116,664.43361 C 541.32226,664.43361 545.33836,666.13401 548.52326,669.17239 C 555.95796,676.26485 551.01806,689.40376 539.46366,693.26861 C 535.77086,694.50384 519.05456,695.38125 509.78576,694.82635 z M 484.28496,671.43361 L 490.12056,671.43361 L 490.45316,654.18361 C 490.78376,637.03614 490.80406,636.90139 493.86106,631.51194 C 495.62656,628.39931 498.24756,625.38704 500.01516,624.43909 L 503.09396,622.7879 L 498.51496,619.36076 C 490.96206,613.70779 490.12556,611.06015 489.51996,590.8897 L 488.99586,573.43361 L 480.69656,573.43361 C 473.39516,573.43361 472.06426,573.72004 469.62786,575.81579 C 467.19776,577.90608 466.77076,579.16201 466.14316,586.06579 C 465.74986,590.39309 465.39606,609.69598 465.35686,628.9611 C 465.27776,667.90395 465.08006,666.68866 472.09816,670.39992 C 474.12636,671.47245 476.38506,672.1438 477.11756,671.8918 C 477.85006,671.63979 481.07536,671.43361 484.28496,671.43361 z M 502.28576,412.45606 C 477.10806,410.75267 454.29826,404.37367 446.16646,396.76176 L 443.54726,394.30995 C 445.71224,358.7843 441.25881,322.58454 445.48096,287.17901 C 448.08576,280.35344 459.87256,273.85379 475.91336,270.39752 C 490.13066,267.33416 533.06786,266.31487 539.78766,268.8812 C 544.67966,270.74947 547.54446,274.02953 549.00416,279.43361 C 550.83636,286.21682 546.83216,292.8087 539.36276,295.30582 C 536.48946,296.26641 535.36546,296.15503 532.36276,294.61221 C 530.39546,293.60133 527.88576,291.38297 526.78576,289.68252 C 523.09516,283.97735 515.11096,282.51748 510.85816,286.77025 C 507.80246,289.82603 505.82776,301.19486 506.59366,311.32244 C 507.28246,320.42957 511.50566,329.4728 518.35296,336.50265 L 522.93666,341.20858 L 520.25126,342.79493 C 512.21966,347.53931 506.78996,358.52908 505.60786,372.43361 C 504.89166,380.85727 506.56636,386.91424 510.77536,391.12321 C 516.03676,396.3846 519.77336,395.38264 527.91616,386.52692 C 531.08826,383.07717 532.63316,382.13913 535.03026,382.20728 C 539.50306,382.33445 546.01496,386.0092 547.76516,389.39376 C 552.02916,397.63951 546.28876,408.81079 536.49026,411.33555 C 530.79846,412.80216 515.03456,413.31857 502.28576,412.45606 z M 487.28576,374.53305 C 487.28576,358.05528 488.59856,351.59212 493.01086,346.34849 C 494.48246,344.5995 497.02546,342.60558 498.66176,341.91755 L 501.63696,340.66658 L 498.63616,339.11483 C 496.33846,337.92665 490.96546,332.864 488.09306,329.18073 C 487.98706,329.04481 487.64956,320.60861 487.34306,310.43361 L 486.78576,291.93361 L 478.54526,291.64332 C 473.99996,291.4832 469.40836,291.83281 468.30566,292.42297 C 463.80856,294.82974 463.58946,296.7429 462.85426,340.02991 L 462.15616,381.12621 L 464.92136,384.41245 C 468.72986,388.93859 471.80536,389.98789 480.13036,389.60155 L 487.28576,389.26949 L 487.28576,374.53305 z M 203.38216,409.16887 C 194.33338,404.51855 195.2802,392.03515 205.03996,387.31052 C 210.78786,384.52801 213.68126,385.3939 219.45076,391.62327 C 223.42026,395.90912 224.78816,396.73592 228.62476,397.16836 C 232.46326,397.60101 233.49916,397.31108 235.59176,395.21845 C 238.70906,392.10116 240.71996,381.10124 240.05796,370.78701 C 239.47726,361.73713 235.18456,352.397 228.34476,345.30081 L 223.66656,340.44732 L 227.39526,337.97982 C 235.78756,332.42608 240.68146,320.85802 240.74096,306.43361 C 240.79296,293.84126 236.96626,287.43361 229.39396,287.43361 C 227.02396,287.43361 225.09016,288.73011 220.44476,293.43361 C 213.72476,300.23754 211.63696,300.75026 204.57416,297.3312 C 192.65872,291.56304 195.93572,275.24988 210.01036,270.26955 C 215.49176,268.32993 245.70606,268.65885 260.05046,270.81431 C 279.99526,273.81129 294.91306,279.14818 300.54926,285.30293 L 302.95826,287.93361 L 302.04766,392.56311 L 299.71806,395.33165 C 294.34306,401.71949 278.82266,407.32002 260.76186,409.38895 C 247.70046,410.88518 206.41366,410.72683 203.38216,409.16887 z M 278.19456,388.98077 C 279.73976,388.18171 281.48236,386.26921 282.06696,384.73077 C 282.71106,383.03583 283.37886,366.09466 283.76176,341.73822 C 284.31886,306.29982 284.20726,301.1825 282.81906,298.49804 C 280.63546,294.27547 274.63686,291.43361 267.90736,291.43361 C 258.86476,291.43361 259.28576,290.64895 259.28576,307.50309 C 259.28576,320.27186 258.98236,323.17155 257.12596,328.1461 C 254.81736,334.33226 249.63536,340.43361 246.68996,340.43361 C 245.60376,340.43361 246.71516,341.58846 249.50226,343.35601 C 252.15426,345.03781 255.20896,348.15285 256.69806,350.69387 C 259.20686,354.97482 259.28576,355.62706 259.28576,372.1048 C 259.28576,381.45231 259.58576,389.40028 259.95236,389.76694 C 261.24996,391.06449 275.33926,390.45729 278.19456,388.98077 z"
       id="path2396"
       style="fill:#000000;fill-opacity:1;stroke:none" />
  </g>
</svg>
