<?xml version="1.0" encoding="UTF-8" standalone="no"?>
<svg
   xmlns:dc="http://purl.org/dc/elements/1.1/"
   xmlns:cc="http://creativecommons.org/ns#"
   xmlns:rdf="http://www.w3.org/1999/02/22-rdf-syntax-ns#"
   xmlns:svg="http://www.w3.org/2000/svg"
   xmlns="http://www.w3.org/2000/svg"
   xmlns:xlink="http://www.w3.org/1999/xlink"
   xmlns:sodipodi="http://sodipodi.sourceforge.net/DTD/sodipodi-0.dtd"
   xmlns:inkscape="http://www.inkscape.org/namespaces/inkscape"
   version="1.0"
   width="360"
   height="360"
   id="svg2"
   inkscape:version="0.48.2 r9819"
   sodipodi:docname="Flag_of_Palaeologus_Dynasty.svg">
  <metadata
     id="metadata23">
    <rdf:RDF>
      <cc:Work
         rdf:about="">
        <dc:format>image/svg+xml</dc:format>
        <dc:type
           rdf:resource="http://purl.org/dc/dcmitype/StillImage" />
      </cc:Work>
    </rdf:RDF>
  </metadata>
  <defs
     id="defs21" />
  <sodipodi:namedview
     pagecolor="#ffffff"
     bordercolor="#666666"
     borderopacity="1"
     objecttolerance="10"
     gridtolerance="10"
     guidetolerance="10"
     inkscape:pageopacity="0"
     inkscape:pageshadow="2"
     inkscape:window-width="881"
     inkscape:window-height="672"
     id="namedview19"
     showgrid="false"
     inkscape:zoom="0.65555556"
     inkscape:cx="42.21928"
     inkscape:cy="180"
     inkscape:window-x="0"
     inkscape:window-y="0"
     inkscape:window-maximized="0"
     inkscape:current-layer="svg2" />
  <rect
     width="360"
     height="360"
     fill="#c8100b"
     id="rect4"
     style="fill:#d9464e;fill-opacity:1" />
  <g
     id="g6"
     style="fill:#fefefe;fill-opacity:1">
    <rect
       y="144"
       width="360"
       height="72"
       id="rect8"
       x="0"
       style="fill:#fefefe;fill-opacity:1" />
    <rect
       x="144"
       width="72"
       height="360"
       id="rect10"
       y="0"
       style="fill:#fefefe;fill-opacity:1" />
    <path
       id="p"
       d="m 283.315,27.378 c -3.809,1.597 -11.548,1.597 -15.359,0 -4.589,-0.269 -9.061,-0.931 -13.441,-1.921 -0.909,0.183 -2.824,-0.567 -2.879,0.961 v 92.16 c 0.053,1.527 1.97,0.777 2.879,0.959 7.188,-1.24 14.4,-2.394 22.081,-1.92 5.224,-0.037 10.501,-0.279 15.36,0.961 15.465,10.693 34.838,-3.515 33.6,-21.121 -3.758,-12.777 -19.363,-21.858 -31.92,-16.56 -8.043,2.913 -10.502,7.935 0,8.16 13.161,8.735 -1.747,26.467 -13.921,18.72 -13.431,-8.11 -12.661,-29.77 2.641,-35.28 -23.933,-6.693 -8.057,-49.458 13.68,-32.88 3.183,2.52 2.946,6.9 2.4,10.561 -2.027,5.917 -8.753,6.65 -13.2,7.92 9.573,13.449 31.911,7.942 38.16,-6 8.953,-25.182 -21.418,-35.012 -40.081,-24.72"
       inkscape:connector-curvature="0"
       style="fill:#fefefe;fill-opacity:1" />
    <use
       xlink:href="#p"
       transform="matrix(-1,0,0,1,360,0)"
       id="use13"
       x="0"
       y="0"
       width="360"
       height="360"
       style="fill:#fefefe;fill-opacity:1" />
    <use
       xlink:href="#p"
       y="216"
       id="use15"
       x="0"
       width="360"
       height="360"
       style="fill:#fefefe;fill-opacity:1" />
    <use
       xlink:href="#p"
       y="216"
       transform="matrix(-1,0,0,1,360,0)"
       id="use17"
       x="0"
       width="360"
       height="360"
       style="fill:#fefefe;fill-opacity:1" />
  </g>
</svg>
