<!DOCTYPE svg PUBLIC "-//W3C//DTD SVG 1.1//EN" "http://www.w3.org/Graphics/SVG/1.1/DTD/svg11.dtd">
<!-- Uploaded to: SVG Repo, www.svgrepo.com, Transformed by: SVG Repo Mixer Tools -->
<svg fill="#a6e3a1" height="800px" width="800px" version="1.1" id="Layer_1" xmlns="http://www.w3.org/2000/svg" xmlns:xlink="http://www.w3.org/1999/xlink" viewBox="0 0 512 512" xml:space="preserve">
<g id="SVGRepo_bgCarrier" stroke-width="0"/>
<g id="SVGRepo_tracerCarrier" stroke-linecap="round" stroke-linejoin="round"/>
<g id="SVGRepo_iconCarrier"> <g> <g> <path d="M403.457,486.044c-19.661-29.493-40.455-58.545-60.8-107.609h13.517c9.22,0,16.696-7.475,16.696-16.696v-66.783 c0-9.22-7.475-16.696-16.696-16.696h-42.758c-3.893-22.046-6.246-44.405-7.03-66.783h16.396c9.22,0,16.696-7.475,16.696-16.696 c0-9.22-7.475-16.696-16.696-16.696h-16.696c0-15.823,0-98.755,0-116.87c0-9.22-7.475-16.696-16.696-16.696h-16.696V16.696 C272.696,7.475,265.22,0,256,0c-9.22,0-16.696,7.475-16.696,16.696v27.826h-16.696c-9.22,0-16.696,7.475-16.696,16.696 c0,18.193,0,101.084,0,116.87h-16.696c-9.22,0-16.696,7.475-16.696,16.696c0,9.22,7.475,16.696,16.696,16.696h16.396 c-0.782,22.379-3.135,44.738-7.03,66.783h-42.758c-9.22,0-16.696,7.475-16.696,16.696v66.783c0,9.22,7.475,16.696,16.696,16.696 h13.517c-20.35,49.077-41.211,78.227-60.799,107.609C101.152,497.131,109.133,512,122.436,512h83.478 c6.324,0,12.104-3.573,14.934-9.229l28.776-57.553h12.754l28.778,57.553c2.827,5.656,8.608,9.229,14.933,9.229h83.478 C402.893,512,410.838,497.11,403.457,486.044z M239.305,77.913h33.391v33.391h-33.391V77.913z M239.305,144.696h33.391v33.391 h-33.391V144.696z M239.032,211.478h33.938c0.731,22.36,2.943,44.705,6.58,66.783h-47.098 C236.089,256.185,238.3,233.839,239.032,211.478z M172.523,311.652c137.433,0,163.216,0,166.956,0v33.391H172.523V311.652z M195.595,478.609H153.63c7.219-10.868,14.018-22.009,20.384-33.391h38.276L195.595,478.609z M191.113,411.826 c4.093-8.764,7.933-17.646,11.524-26.628l19.972,26.628H191.113z M256.001,400.696l-16.696-22.261h33.391L256.001,400.696z M289.392,411.826l19.971-26.628c3.592,8.982,7.432,17.864,11.524,26.628H289.392z M316.406,478.609l-16.696-33.391h38.276 c6.367,11.382,13.166,22.523,20.384,33.391H316.406z"/> </g> </g> </g>
</svg>