<!DOCTYPE svg PUBLIC "-//W3C//DTD SVG 1.1//EN" "http://www.w3.org/Graphics/SVG/1.1/DTD/svg11.dtd">
<!-- Uploaded to: SVG Repo, www.svgrepo.com, Transformed by: SVG Repo Mixer Tools -->
<svg fill="#a6e3a1" width="800px" height="800px" viewBox="0 0 32 32" version="1.1" xmlns="http://www.w3.org/2000/svg">
<g id="SVGRepo_bgCarrier" stroke-width="0"/>
<g id="SVGRepo_tracerCarrier" stroke-linecap="round" stroke-linejoin="round"/>
<g id="SVGRepo_iconCarrier"> <title>windowsxp</title> <path d="M16.515 17.402l-2.867 9.87c2.518 1.708 5.318 3.065 11.129 0.652l2.871-9.897c-5.8 2.408-8.6 1.062-11.133-0.625zM16.501 17.392l0.014 0.010 0.004-0.010zM9.273 14.463c-1.98 0.094-3.829 0.561-5.51 1.33l0.093-0.038-2.852 9.966c5.811-2.412 8.576-1.003 11.094 0.687l2.907-9.985c-1.566-1.222-3.562-1.96-5.73-1.962h-0.001zM19.814 5.785l-2.819 9.933c2.519 1.708 5.548 3.117 11.131 0.616l2.87-9.916h-0.052c-5.812 2.413-8.63 1.057-11.131-0.634zM12.628 2.773c-1.984 0.099-3.835 0.569-5.518 1.343l0.093-0.038-2.853 9.933c1.659-0.791 3.596-1.288 5.64-1.374l0.030-0.001c2.075 0.082 3.964 0.818 5.482 2.006l-0.021-0.016 2.869-9.897c-1.562-1.22-3.554-1.957-5.718-1.957-0.002 0-0.004 0-0.005 0h0z"/> </g>
</svg>